:SAMPLES-PER-SECOND 30
:FULLY-SPECIFIED
:DEGREES
391
root  27.3596 39.0355 20.0917 176.188 -37.5927 174.82
RightUpLeg  -7.48143 -5.4158 -12.718
RightLeg  29.6084 -3.90569 -2.6167
RightFoot  -9.57718 -0.110453 2.95054
RightToes  -6.98493e-010 0 -3.6325e-017
Spine  10.2904 -3.09722 -6.83094
Spine1  4.57985 -5.06975 3.85389
HEad  -4.74698 -52.7547 5.40686
LeftShoulder1  0.451533 2.25408 -30.0238
LeftArm  22.4331 -11.0252 -56.9664
LeftForeArm  22.0889 -13.4088 -10.7805
LeftHand  -0.0659063 3.34605 2.81027
RightShoulder  -0.496287 -5.10664 24.1355
RightArm  5.80982 -11.2749 44.2904
RightForeArm  -0.869873 22.406 4.81768
RightHand  -0.74721 5.08242 -8.58924
LeftUpLeg  3.17849 9.22177 -3.43873
LeftLeg  14.8124 7.95669 0.00869186
LeftFoot  -10.4843 0.0325981 3.99899
LeftToes  7.91257e-010 -1.64976e-010 -3.02228e-011
392
root  26.3632 39.0773 19.7994 176.084 -40.8 174.829
RightUpLeg  -10.3952 -7.70793 -9.6488
RightLeg  29.3886 -3.92942 -2.62398
RightFoot  -9.16757 -0.111409 2.61658
RightToes  -6.98493e-010 0 -3.6325e-017
Spine  10.7503 -3.32391 -7.66527
Spine1  4.55511 -5.5557 4.78592
HEad  -7.9 -52.2004 9.90921
LeftShoulder1  0.434322 2.28891 -29.6421
LeftArm  30.2598 -11.2364 -58.681
LeftForeArm  17.196 -17.6621 -8.0878
LeftHand  -0.0549903 3.33122 2.17748
RightShoulder  -0.47844 -5.03978 24.3016
RightArm  7.12448 -10.6686 44.9679
RightForeArm  2.06402 27.9383 5.92703
RightHand  -0.740971 6.18676 -7.73836
LeftUpLeg  5.53312 6.66956 -4.85574
LeftLeg  12.9105 7.73237 0.295288
LeftFoot  -10.8604 0.0466655 4.54819
LeftToes  7.91257e-010 -1.64976e-010 -3.02228e-011
393
root  25.355 39.0352 19.4512 176.298 -43.3404 174.713
RightUpLeg  -13.2466 -9.15005 -6.59504
RightLeg  26.9928 -3.58602 -2.19665
RightFoot  -8.62952 -0.111378 2.21287
RightToes  -6.98493e-010 0 -3.6325e-017
Spine  10.6584 -3.33364 -7.87154
Spine1  4.61154 -5.5813 5.15531
HEad  -10.1803 -52.4896 13.1104
LeftShoulder1  0.415461 2.3465 -29.7909
LeftArm  31.9833 -11.4376 -59.5369
LeftForeArm  14.1696 -19.555 -6.53159
LeftHand  -0.0573435 3.47848 2.4272
RightShoulder  -0.493816 -5.08741 24.3566
RightArm  8.48173 -9.88894 45.6083
RightForeArm  5.03797 32.727 6.95711
RightHand  -0.670071 5.14286 -7.67678
LeftUpLeg  7.55812 6.13652 -5.78094
LeftLeg  11.7113 6.22836 0.240108
LeftFoot  -11.7919 0.0915466 5.25282
LeftToes  7.91257e-010 -1.64976e-010 -3.02228e-011
394
root  24.3288 38.9374 19.0441 176.149 -45.9468 174.141
RightUpLeg  -14.402 -9.75106 -4.1158
RightLeg  22.1793 -4.10181 -2.0894
RightFoot  -8.45896 -0.128804 2.84314
RightToes  -6.98493e-010 0 -3.6325e-017
Spine  11.0624 -3.41021 -8.31333
Spine1  4.92894 -5.72578 5.30641
HEad  -9.78288 -53.1811 12.5822
LeftShoulder1  0.43725 2.28393 -29.7349
LeftArm  31.8792 -11.6156 -59.7083
LeftForeArm  11.2926 -20.6293 -5.7345
LeftHand  -0.0518544 3.57508 2.05465
RightShoulder  -0.453962 -4.95763 24.3346
RightArm  10.0049 -8.61496 46.3352
RightForeArm  6.98198 36.0299 7.75157
RightHand  -0.692308 5.66488 -7.57209
LeftUpLeg  10.3909 5.76852 -6.87313
LeftLeg  10.6712 4.71973 0.47194
LeftFoot  -12.7938 0.149614 5.75008
LeftToes  7.91257e-010 -1.64976e-010 -3.02228e-011
395
root  23.2081 38.7706 18.5776 176.292 -47.9817 173.485
RightUpLeg  -14.9549 -10.2588 -2.14051
RightLeg  15.7501 -4.36223 -1.41034
RightFoot  -8.51186 -0.142392 3.42903
RightToes  -6.98493e-010 0 -3.6325e-017
Spine  10.6248 -3.47836 -7.83585
Spine1  5.6686 -5.5553 4.56831
HEad  -10.8984 -54.1098 14.3711
LeftShoulder1  0.442995 2.27406 -29.9236
LeftArm  31.5555 -12.2314 -59.1329
LeftForeArm  9.36053 -20.6117 -5.82807
LeftHand  -0.0931808 2.92826 3.82049
RightShoulder  -0.386766 -4.76252 23.7686
RightArm  11.0733 -7.46301 47.4141
RightForeArm  8.8952 38.2292 8.28359
RightHand  -0.686913 5.67704 -7.51285
LeftUpLeg  13.2549 5.72793 -7.73615
LeftLeg  9.6667 3.36004 0.469214
LeftFoot  -14.0737 0.234067 6.22491
LeftToes  7.91257e-010 -1.64976e-010 -3.02228e-011
396
root  22.0134 38.5549 18.0494 176.892 -49.8225 172.939
RightUpLeg  -15.1623 -9.02381 -1.10663
RightLeg  8.49367 -6.93118 0.379026
RightFoot  -8.25795 -0.18037 4.57288
RightToes  -6.98493e-010 0 -3.6325e-017
Spine  9.39648 -3.63685 -7.0462
Spine1  6.28771 -5.3572 3.70207
HEad  -11.5067 -55.0522 15.7603
LeftShoulder1  0.471154 2.18514 -29.6195
LeftArm  28.7104 -12.1853 -58.4605
LeftForeArm  10.7026 -19.8654 -6.24602
LeftHand  -0.100338 2.75417 3.85506
RightShoulder  -0.390136 -4.77029 23.8425
RightArm  12.6196 -6.47999 47.586
RightForeArm  9.75384 39.4822 8.61953
RightHand  -0.681299 5.97738 -7.27518
LeftUpLeg  15.479 5.85891 -8.20072
LeftLeg  9.26303 1.80036 0.216706
LeftFoot  -15.5571 0.352192 7.02759
LeftToes  7.91257e-010 -1.64976e-010 -3.02228e-011
397
root  20.7709 38.294 17.4748 178.081 -52.6137 171.881
RightUpLeg  -14.9222 -6.72424 -1.62594
RightLeg  2.09104 -12.9249 2.73611
RightFoot  -7.66114 -0.255457 6.33439
RightToes  -6.98493e-010 0 -3.6325e-017
Spine  8.14429 -4.00968 -7.18165
Spine1  6.75064 -5.74541 4.14283
HEad  -12.7874 -56.4418 17.2261
LeftShoulder1  0.420697 2.33243 -29.8066
LeftArm  25.381 -12.0876 -57.3762
LeftForeArm  12.9624 -18.6271 -7.00106
LeftHand  -0.0844051 3.08311 3.47833
RightShoulder  -0.404063 -4.81724 23.8245
RightArm  14.0237 -5.97489 47.1728
RightForeArm  10.0359 40.3043 8.86337
RightHand  -0.68633 5.43423 -7.6596
LeftUpLeg  17.4412 5.63541 -8.79481
LeftLeg  9.4464 -0.421027 0.0971046
LeftFoot  -17.1539 0.484132 7.47532
LeftToes  7.91257e-010 -1.64976e-010 -3.02228e-011
398
root  19.499 37.9905 16.8374 179.17 -55.1481 170.85
RightUpLeg  -14.924 -6.1985 -1.40853
RightLeg  -0.844052 -16.832 3.59474
RightFoot  -7.21534 -0.290223 6.65606
RightToes  -6.98493e-010 0 -3.6325e-017
Spine  7.4896 -4.19211 -7.44907
Spine1  6.57516 -6.04945 4.88506
HEad  -14.5951 -57.5142 19.2514
LeftShoulder1  0.345589 2.54362 -29.8781
LeftArm  19.2738 -12.0561 -56.0779
LeftForeArm  17.1469 -15.5878 -8.85332
LeftHand  -0.108182 2.98623 4.6198
RightShoulder  -0.427652 -4.88888 23.9582
RightArm  14.5716 -6.09478 46.5183
RightForeArm  9.88 40.1501 8.82346
RightHand  -0.640487 5.77486 -6.96719
LeftUpLeg  19.3404 5.51728 -9.04819
LeftLeg  10.2819 -2.4885 0.0253841
LeftFoot  -18.6974 0.604589 7.66573
LeftToes  7.91257e-010 -1.64976e-010 -3.02228e-011
399
root  18.1143 37.6768 16.134 -179.644 -57.1748 169.996
RightUpLeg  -15.4963 -6.93274 -1.06451
RightLeg  0.989007 -17.7633 3.91329
RightFoot  -6.95951 -0.280113 5.5646
RightToes  -6.98493e-010 0 -3.6325e-017
Spine  6.23369 -4.30359 -6.95917
Spine1  6.48799 -6.11138 5.09399
HEad  -15.9509 -58.4417 20.5436
LeftShoulder1  0.338647 2.56614 -30.0073
LeftArm  12.5334 -11.5217 -54.2944
LeftForeArm  22.2616 -12.1475 -10.3538
LeftHand  -0.0608382 4.12494 3.64294
RightShoulder  -0.479917 -5.04543 24.2909
RightArm  14.9653 -6.38403 45.7508
RightForeArm  8.92894 38.5866 8.39565
RightHand  -0.650112 5.81009 -7.04574
LeftUpLeg  20.7085 5.34504 -9.08716
LeftLeg  12.112 -3.93682 -0.123045
LeftFoot  -19.9764 0.618058 6.59763
LeftToes  7.91257e-010 -1.64976e-010 -3.02228e-011
400
root  16.6686 37.4835 15.4059 -179.737 -58.994 170.691
RightUpLeg  -16.937 -7.72156 0.337363
RightLeg  6.38014 -16.2323 2.47735
RightFoot  -3.98727 0.12398 -0.453355
RightToes  -6.98493e-010 0 -3.6325e-017
Spine  4.60491 -4.57216 -5.31772
Spine1  6.95771 -6.3913 5.58011
HEad  -17.66 -59.3989 21.2558
LeftShoulder1  0.311678 2.64625 -30.2242
LeftArm  5.49828 -10.0504 -52.2677
LeftForeArm  26.9505 -8.47159 -11.0424
LeftHand  -0.030803 4.96458 2.80137
RightShoulder  -0.47897 -5.03768 24.3697
RightArm  15.4381 -6.73989 45.2935
RightForeArm  7.38646 35.1351 7.47798
RightHand  -0.720273 6.64898 -7.27099
LeftUpLeg  22.2726 5.43749 -7.40397
LeftLeg  13.8341 -7.18541 -1.32913
LeftFoot  -20.4731 0.543765 5.24036
LeftToes  7.91257e-010 -1.64976e-010 -3.02228e-011
401
root  15.1846 37.4638 14.6857 177.661 -59.3337 174.005
RightUpLeg  -19.5014 -9.30538 3.23034
RightLeg  13.2432 -13.1738 0.179777
RightFoot  2.56871 1.26824 -10.7251
RightToes  -6.98493e-010 0 -3.6325e-017
Spine  3.6513 -4.31289 -1.01699
Spine1  6.87368 -5.85735 5.04949
HEad  -20.2387 -59.5068 23.3671
LeftShoulder1  0.252791 2.81217 -30.5144
LeftArm  0.496041 -7.83868 -50.0469
LeftForeArm  28.7274 -5.42832 -10.8035
LeftHand  -0.00500043 6.05116 4.31864
RightShoulder  -0.561907 -5.27105 25.0298
RightArm  16.7508 -6.81052 44.6329
RightForeArm  4.97152 29.939 6.20318
RightHand  -0.710737 6.42068 -7.30983
LeftUpLeg  23.9148 6.54401 -3.97982
LeftLeg  15.7326 -10.5742 -3.01732
LeftFoot  -19.3114 0.32276 3.05002
LeftToes  7.91257e-010 -1.64976e-010 -3.02228e-011
